# xmcd
#
# Track frame offsets:
#        150
#        13385
#        30085
#        43595
#        56290
#        83795
#        94865
#        108425
#        126387
#        137290
#        152830
#        170097
#        182877
#
# Disc length: 2652 seconds
#
# Revision: 1
# Processed by: cddbd v1.5.1PL0 Copyright (c) Steve Scherf et al.
# Submitted via: ExactAudioCopy v0.95a5
#
DISCID=a40a5a0d
DTITLE=The Jon Spencer Blues Explosion - Extra Width
DYEAR=1993
DGENRE=Rock
TTITLE0=Afro
TTITLE1=History of Lies
TTITLE2=Back Slider
TTITLE3=Soul Letter
TTITLE4=Soul Typecast
TTITLE5=Pant Leg
TTITLE6=Hey Mom
TTITLE7=Big Road
TTITLE8=Train #2
TTITLE9=Inside the World of the Blues Explosion
TTITLE10=The World of Sex
TTITLE11=Beat ot the Traps
TTITLE12=Memphis Soul Typecast
EXTD=
EXTT0=
EXTT1=
EXTT2=
EXTT3=
EXTT4=
EXTT5=
EXTT6=
EXTT7=
EXTT8=
EXTT9=
EXTT10=
EXTT11=
EXTT12=
PLAYORDER=
